# xmcd
#
# Track frame offsets:
#	150
#	10950
#	24397
#	34925
#	45637
#	59437
#	68987
#	83612
#	97535
#	112600
#	124810
#	145545
#
# Disc length: 2133 seconds
#
# Revision: 0
# Processed by: cddbd v1.4PL0 Copyright (c) Steve Scherf et al.
# Submitted via: dBpowerAMP V4.0
#
DISCID=8a08530c
DTITLE=Bill Monroe  - 36 All Time Favorites #3
DYEAR=1900
DGENRE=
TTITLE0=Old Joe Clark
TTITLE1=I Live In The Past
TTITLE2=Last Old Dollar
TTITLE3=Log Cabin in the Lane
TTITLE4=Kentucky mandolin
TTITLE5=Never Again
TTITLE6=Sally Goodin
TTITLE7=I Want to Go With you
TTITLE8=Is The Blue Moon Still Shining
TTITLE9=Lady of the Blue Ridge
TTITLE10=My Last Days on Earth
TTITLE11=Precious Memories
EXTD=
EXTT0=
EXTT1=
EXTT2=
EXTT3=
EXTT4=
EXTT5=
EXTT6=
EXTT7=
EXTT8=
EXTT9=
EXTT10=
EXTT11=
PLAYORDER=
